/* XPM */
static char *result[] = {
/* columns rows colors chars-per-pixel */
"32 32 3 1 ",
"  c gray2",
". c #060606",
"X c #040404",
/* pixels */
"   .      .                    .",
"       X    .     .        X    ",
"..               .   ..         ",
"             ..                 ",
"         .    .               . ",
"     .                          ",
"          ..                .  .",
". .               . .           ",
"                                ",
"  .                       .     ",
"  .  .         .  .             ",
"                   .            ",
"   .       .  .    .       .    ",
"         .  ...              .. ",
"    ..        .          ..    .",
"          .   ..               .",
"                   .            ",
"                .             . ",
"              ..             .  ",
".       .  .. .     ..       .  ",
"     .        .          .      ",
"   .      .                    .",
".           .     .             ",
"..               .   ..         ",
"              .                 ",
"  .                             ",
"     .     .                    ",
"                            .   ",
". .   .        .  .... .   .    ",
" ..       ..       .  .       ..",
"  .  ..        . ..      ..  .  ",
"  .          . .       .        "
};
