/* XPM */
static char *result[] = {
/* columns rows colors chars-per-pixel */
"29 32 232 2 ",
"   c #201208",
".  c #20130A",
"X  c #221810",
"o  c #241C16",
"O  c #251F1A",
"+  c #241C17",
"@  c #221811",
"#  c #21140A",
"$  c #21150C",
"%  c #231912",
"&  c #251E19",
"*  c #22170F",
"=  c #201309",
"-  c #2B3033",
";  c #354855",
":  c #3B586B",
">  c #364A58",
",  c #2C3236",
"<  c #231A14",
"1  c #26221E",
"2  c #2F3A41",
"3  c #385263",
"4  c #344651",
"5  c #2B2E2F",
"6  c #21160D",
"7  c #241D18",
"8  c #354956",
"9  c #457494",
"0  c #5090BC",
"q  c #47789A",
"w  c #364D5C",
"e  c #26211E",
"r  c #2B2E30",
"t  c #3B5A6F",
"y  c #4C86AD",
"u  c #44708D",
"i  c #33444F",
"p  c #251F1B",
"a  c #2B2F32",
"s  c #3C5C71",
"d  c #4D88B0",
"f  c #59A7DC",
"g  c #5BADE5",
"h  c #5EB4EE",
"j  c #5FB7F3",
"k  c #549BCB",
"l  c #416883",
"z  c #2E363B",
"x  c #32414B",
"c  c #436D8A",
"v  c #549ACA",
"b  c #4B83AA",
"n  c #3A576A",
"m  c #292B2B",
"M  c #221911",
"N  c #21160E",
"B  c #2B3032",
"V  c #354957",
"C  c #3D5E74",
"Z  c #3F637C",
"A  c #416984",
"S  c #467595",
"D  c #508FBA",
"F  c #5AA9DF",
"G  c #58A6DB",
"H  c #4D87AE",
"J  c #416882",
"K  c #3E6077",
"L  c #40667F",
"P  c #426B87",
"I  c #3F637B",
"U  c #344753",
"Y  c #2A2D2E",
"T  c #344652",
"R  c #457493",
"E  c #4F8DB7",
"W  c #33434E",
"Q  c #44718F",
"!  c #559ED0",
"~  c #5DB1EA",
"^  c #58A5DA",
"/  c #549AC9",
"(  c #4A7FA4",
")  c #303C44",
"_  c #436F8C",
"`  c #5091BC",
"'  c #32424C",
"]  c #21140B",
"[  c #201209",
"{  c #26221F",
"}  c #3B586C",
"|  c #4A81A6",
" . c #5295C3",
".. c #436D89",
"X. c #2F3A42",
"o. c #559CCD",
"O. c #5EB3EE",
"+. c #5BABE2",
"@. c #57A3D7",
"#. c #56A0D2",
"$. c #4A80A4",
"%. c #374F5F",
"&. c #2E373C",
"*. c #5399C8",
"=. c #497DA0",
"-. c #395466",
";. c #2A2B2C",
":. c gray16",
">. c #21130A",
",. c #2B2F31",
"<. c #364B59",
"1. c #3F627A",
"2. c #3F647D",
"3. c #406780",
"4. c #40657E",
"5. c #426C89",
"6. c #4E8AB2",
"7. c #5AABE1",
"8. c #457393",
"9. c #406781",
"0. c #282827",
"q. c #344551",
"w. c #457392",
"e. c #354A58",
"r. c #2E383E",
"t. c #3D5D73",
"y. c #4B82A8",
"u. c #569ED0",
"i. c #59A8DD",
"p. c #5DB2EB",
"a. c #57A2D5",
"s. c #272320",
"d. c #374E5E",
"f. c #5499C8",
"g. c #374E5D",
"h. c #5CB0E9",
"j. c #559ECF",
"k. c #2B2E31",
"l. c #5EB5F0",
"z. c #5DB3ED",
"x. c #5397C6",
"c. c #487C9F",
"v. c #426C88",
"b. c #416781",
"n. c #497FA3",
"m. c #5FB6F1",
"M. c #5BAEE6",
"N. c #5296C3",
"B. c #5BABE3",
"V. c #58A3D7",
"C. c #5CAFE7",
"Z. c #5FB7F2",
"A. c #57A3D6",
"S. c #5CAEE7",
"D. c #5BACE3",
"F. c #497EA2",
"G. c #385162",
"H. c #58A5D9",
"J. c #5499C9",
"K. c #5AAAE0",
"L. c #5EB5F1",
"P. c #57A2D4",
"I. c #5296C4",
"U. c #2A2D2F",
"Y. c #3E6179",
"T. c #4A81A5",
"R. c #5397C5",
"E. c #467596",
"W. c #3D5D72",
"Q. c #5193C0",
"!. c #5DB2EC",
"~. c #497DA1",
"^. c #2A2C2C",
"/. c #3D5E75",
"(. c #5091BD",
"). c #5CAFE8",
"_. c #59A7DD",
"`. c #272422",
"'. c #5CB0E8",
"]. c #4E8CB5",
"[. c #3B596D",
"{. c #282625",
"}. c #231911",
"|. c #5194C1",
" X c #57A1D4",
".X c #58A4D7",
"XX c #231B14",
"oX c #2E353B",
"OX c #374F60",
"+X c #436E8A",
"@X c #314049",
"#X c #59A8DE",
"$X c #4D87AF",
"%X c #406680",
"&X c #282727",
"*X c #426B86",
"=X c #3E627A",
"-X c #241B15",
";X c #2A2C2D",
":X c #3E6078",
">X c #5295C2",
",X c #569FD1",
"<X c #2E363C",
"1X c #2D3439",
"2X c #559DCE",
"3X c #3A5669",
"4X c #282624",
"5X c #231B15",
"6X c #44708E",
"7X c #292A2A",
"8X c #2F393F",
"9X c #426A85",
"0X c #4C84AB",
"qX c #3D5F75",
"wX c #58A4D8",
"eX c #272523",
"rX c #3A5568",
"tX c #21150D",
"yX c #559DCD",
"uX c #4F8EB8",
"iX c #3C5A6F",
"pX c #25201C",
"aX c #487B9E",
"sX c #374D5D",
"dX c #385060",
"fX c #395467",
"gX c #467594",
"hX c #395364",
"jX c #324049",
"kX c #559CCC",
"lX c #559DCF",
"zX c #5398C6",
/* pixels */
"                                                          ",
"                                                          ",
"                                                          ",
"                                                          ",
"                                                          ",
"                                                          ",
"                                                          ",
"              . X o O O O O O O + @ # $ % & o * =         ",
"              @ - ; : : : : : : > , < 1 2 3 4 5 6         ",
"              7 8 9 0 0 0 0 0 0 q w e r t y u i @         ",
"        = % p a s d f g h j j j k l z x c v b n m O M     ",
"        N B V C Z A S D F j j j G H J K L P l I C U Y .   ",
"        % T R E P V W Q ! j j j ~ ^ / ( C ) w _ ` _ ' ]   ",
"  [ < { a } |  ...i X.P o.O.+.@.#.#.#.$.%.& &.J *.=.-.;.:.",
"  >.,.<.1.2.L 3.4.Z 5.6.f 7.D 8.9.9.9.-.&.% 0.q.I L 2.1.1.",
"  ] i w. .u e.r.t.y.u.i.p.a.w.W r r r 0.& ] % s.Y d.R f.k ",
"  $ g.H h.| 3 r.t.y.j.i.p.a.w.i k.k.k.k.k.k.k.k.k.n y l.j ",
"  $ g.H z.x.c.9.4.I v.6.f 7.D R b.b.b.b.b.b.b.b.b.n.v m.j ",
"  $ g.H m.M.G N...i 2 P o.O.B.V.#.#.#.#.#.#.#.#.#.f C.Z.j ",
"  ] ' _ x.A.S.D.F.G.i Q u.j j j ~ H.J. . . .! K.L.g P.I. .",
"  . U.U Y.T.#.~ R.=.E.D F j j j G H J W.W.W.9 Q.!.o.~.C W.",
"    @ O ^./.(.L.).F _.g h j j j k l z `.`.`.e.=.'.].[.{.`.",
"        }.i u |. XS.j j j ~ .XI.q w e XX0.oXOX+X].P @X]   ",
"        6 5 4 K | a.j j j #X$X%Xe., < &X; A *X=X[.W ;..   ",
"        = * -X;X:X>Xj j j ,X*X<X+ X # 1XA 2Xy 3X4X5X*     ",
"              + T 6X0 #.C.2X2.^.< 7X8X%.9X0Xv.' @         ",
"              X r i qX| wX2X2.^.eX; *X_ 1.rX' ;.tX        ",
"              = tXX Y I J.2X2.^.- %XyXuXiX{.X $ [         ",
"                    pX; 6XaX2.sXdX9.F.v.i o               ",
"                    % 5 ' fX4.gXw.I hXjX;.*               ",
"                      . ] U.4.kXI.qX0.] =                 ",
"                          ;X4.lXzXqX4X                    "
};
