/* XPM */
static char *result[] = {
/* columns rows colors chars-per-pixel */
"32 32 202 2 ",
"   c #0E071B",
".  c #0F091C",
"X  c #110B1D",
"o  c #0F131C",
"O  c #301507",
"+  c #301608",
"@  c #381605",
"#  c #2F1609",
"$  c #39271E",
"%  c #151424",
"&  c #181929",
"*  c #1A1A32",
"=  c #1C2636",
"-  c #2C2722",
";  c #2C2A25",
":  c #2D2D28",
">  c #332921",
",  c #342620",
"<  c #2D312C",
"1  c #212A3B",
"2  c #333734",
"3  c #481C07",
"4  c #4C230C",
"5  c #5B2307",
"6  c #442215",
"7  c #462A1F",
"8  c #44301F",
"9  c #5E3A1E",
"0  c #672909",
"q  c #712D0A",
"w  c #7B2E0A",
"e  c #782C06",
"r  c #7C310B",
"t  c #622C12",
"y  c #763414",
"u  c #473226",
"i  c #4B3629",
"p  c #37443F",
"a  c #4D4238",
"s  c #614033",
"d  c #6F503C",
"f  c #774429",
"g  c #223340",
"h  c #233B45",
"j  c #1B494D",
"k  c #2A4E53",
"l  c #295357",
"z  c #38555B",
"x  c #314B4B",
"c  c #2A5C62",
"v  c #2D6A6A",
"b  c #33686D",
"n  c #2F6F70",
"m  c #387275",
"M  c #5D5F4D",
"N  c #455555",
"B  c #6E4F41",
"V  c #6F524B",
"C  c #765742",
"Z  c #7B6859",
"A  c #656B5C",
"S  c #445C62",
"D  c #4B7478",
"F  c #507078",
"G  c #506B6B",
"H  c #70746D",
"J  c #802F0A",
"K  c #83310D",
"L  c #833612",
"P  c #853D16",
"I  c #8D3B14",
"U  c #853D19",
"Y  c #8C3C19",
"T  c #923B13",
"R  c #933F1B",
"E  c #8D431E",
"W  c #92421D",
"Q  c #9B441C",
"!  c #9A481E",
"~  c #A1471D",
"^  c #8E4828",
"/  c #934522",
"(  c #924A26",
")  c #944C2A",
"_  c #9D4E29",
"`  c #9B4B24",
"'  c #9D5C3B",
"]  c #905334",
"[  c #A74D29",
"{  c #A5542E",
"}  c #AA552E",
"|  c #AE5827",
" . c #B35526",
".. c #B35927",
"X. c #B3562A",
"o. c #B95629",
"O. c #B3592A",
"+. c #B9592D",
"@. c #A45430",
"#. c #A75936",
"$. c #AB5A35",
"%. c #A65C3B",
"&. c #AB5B39",
"*. c #AB5633",
"=. c #B35B33",
"-. c #B45E39",
";. c #B95C35",
":. c #A2623E",
">. c #BD6339",
",. c #C26335",
"<. c #C16439",
"1. c #D96F3D",
"2. c #D76F3F",
"3. c #D7703E",
"4. c #D9703D",
"5. c #945E44",
"6. c #A35D40",
"7. c #A96343",
"8. c #AB6748",
"9. c #B56341",
"0. c #BD6743",
"q. c #BC6946",
"w. c #BA6949",
"e. c #B76949",
"r. c #827C7B",
"t. c #C46B45",
"y. c #CB6D45",
"u. c #C56C49",
"i. c #CB6E49",
"p. c #C66744",
"a. c #D16F47",
"s. c #D16F49",
"d. c #CC7245",
"f. c #C4714C",
"g. c #CD724A",
"h. c #C77047",
"j. c #D37244",
"k. c #DC7445",
"l. c #D17349",
"z. c #D97648",
"x. c #CE7A54",
"c. c #E27746",
"v. c #7C847F",
"b. c #D1855F",
"n. c #CE825A",
"m. c #D18A65",
"M. c #537E86",
"N. c #607D83",
"B. c #3B8483",
"V. c #4B898B",
"C. c #499597",
"Z. c #539496",
"A. c #638A8E",
"S. c #67868D",
"D. c #678D94",
"F. c #6C959D",
"G. c #66979C",
"H. c #75949A",
"J. c #748687",
"K. c #4AA09F",
"L. c #5F99A2",
"P. c #6A96A1",
"I. c #649CA3",
"U. c #6B9BA2",
"Y. c #649AA4",
"T. c #7095A1",
"R. c #4DA7A9",
"E. c #59A6A9",
"W. c #55AFB1",
"Q. c #4FBCBF",
"!. c #5BB3B7",
"~. c #5CBABC",
"^. c #5CB4BA",
"/. c #63A4AC",
"(. c #6AA2AB",
"). c #65AAAE",
"_. c #6AA1A6",
"`. c #64ADB3",
"'. c #69A9B1",
"]. c #64B3B6",
"[. c #64B5BA",
"{. c #64B8BD",
"}. c #69B3BA",
"|. c #5BBDC1",
" X c #64BDC1",
".X c #5BC3C4",
"XX c #56C5C8",
"oX c #54CDCD",
"OX c #58C8C9",
"+X c #5AD3CE",
"@X c #5ACFD2",
"#X c #5DD3D4",
"$X c #5ED6DA",
"%X c #57D4D4",
"&X c #63C6C9",
"*X c #63CACD",
"=X c #62C8C7",
"-X c #63CCD2",
";X c #62D4D8",
":X c #5FDFE1",
">X c #5FE2E6",
",X c #60E0E0",
/* pixels */
"* * * * * * * * * * = = g m v v v v n h & & o                   ",
"* * * * * * * * = k v W.^.#X~./.(.].#X|.W.V.l & %   . .         ",
"* * * * * * k b OX$X~.I.F.Y.K.F F V.E.P.F./.#XOXC.k % .         ",
"* * * * 1 V.@X[.F.F.V.S > $ 5 5 5 5 6 , x Z.G.F.).%XR.h .       ",
"* * * l Z.).Y.`.D i 6 t y K =.{ @.{ L L y 4 u z E._.P.E.b % X   ",
"* * g |.|.Y.N.a t I ) &.g.I 3.0.w.w.Y 4.2.[ Y y i G G.].+Xj %   ",
"* = K./.(.M.7 q | k.p.t.d.T 3.9.0.w.Y 1.p.y.a.>.w 4 S /.I.~.1 % ",
"X c |.G.S.2 0 &.O.z.y.u.i.T a.p.i.w.Y 1.t.y.a.;. .[ 6 F P.E.C.o ",
"l W.{.!.N 5 @.$.O.j.g.y.u.I j.2.y.t.Y 3.u.t.i.=. .3.0 2 Z. X Xm ",
"l !.P.N.$ / 9.&.O.j.t.y.t.I j.y.y.t.Y 1.u.p.i.-.| d.@.6 N P. XB.",
"R. X}.x t $.e.$.X.y.w.t.w.I k.y.y.u.Y 3.t.q.y.>.X.j.9.y , (. X|.",
"oX|.}.- P z.q.$.O.j.q.w.w.T 4.y.p.y.I 3.t.w.u.>.| j.e.( + I.^.#X",
"XX(.H.9 r Q E I I Q E R R r Q W W W K Q W W W I I Q W L 0 v.G.OX",
"@X-XM 3.z.j.b.g.l.j.x.n.l.j.j.d.b.g.g.j.j.b.x.j.l.l.m.l.l.f ].,X",
"OX).H @./ / ( / W / ^ ^ / / / / ( / / / / ( ( W / / ( / ^ Z U.*X",
"XX`.).; q ! E Y I ~ W W E r ~ / W W r Q W W E Y I Q ` y @ D./.*X",
"oX.X{.: U j.q.#.O.z.y.w.q.I 4.y.q.t.R 3.y.w.q.&...k.i._ O E.~.#X",
".X(.T.- P 0.Z ] ..j.y.t.q.R 4.y.t.d.R 3.t.t.q.$. .c.u.[ O S.U.&X",
"oX~.`.: P :.r.s | j.t.y.q.I 1.p.l.y.I 3.t.h.t.&. .c.u._ O I.!.#X",
"OX!.`.; P l.d 5.X.l.q.y.h.I a.0.a.y.Y 3.y.t.t.&. .c.a._ O G.`.@X",
"XX(.P.- P j.B :...l.q.u.y.I j.0.a.i.Y 3.y.y.u.$. .k.i.( O S.P.OX",
"%X+X&X< E h.V ' X.j.w.t.g.T j.0.j.y.Y 3.y.y.y.$.X.j.y._ O ].*X,X",
"XX/.P.- U ' r.9 X.d.w.q.y.T j.>.y.y.Y 3.a.a.a.$. .j.a._ # A.Y.OX",
"XX).T.- U g.5.' o.a.w.q.y.T j.q.w.w.Y 3.j.y.y.$. .j.u.) # A.I.&X",
"%X$X;X< U l.0.&.O.j.e.q.t.T j.q.0.0.Y 1.j.w.g.;.X.j.e.( + [.;X,X",
"XX(.H.8 L +.@.` ~ =.{ *.} K O.{ @.} L +.+.} { [ ~ =.{ E 3 J.U.&X",
"oX XA >.<.,.q.>.,.<.<.t.<.,.,.<.t.<.,.,.,.t.q.,.,.>.f.<.<.C ).$X",
"oX XA >.=.#.8.#.$.#.%.%.$.*.$.#.8.&.#.#.#.7.%.*.*.#.8.#.&.d ).;X",
"XX(.H.8 0 K r w w w r w r e J w r r e r r w r w e r w q 3 J.P.&X",
"%X;X-X< Y k.d.$.O.z.t.u.q.I j.u.i.y.Y 3.d.y.h.&.O.l.q.) # {.#X,X",
"XX).U.; E j.i.;.O.j.t.w.q.I 3.y.y.t.I 2.t.i.i.&. .j.q.) + D.I.*X",
".X_.H.: y z.t.-.O.z.h.q.w.Y z.y.t.y.W j.t.u.w.&.| z.u.) + S.T.&X"
};
