/* XPM */
static char *result[] = {
/* columns rows colors chars-per-pixel */
"32 32 214 2 ",
"   c #0E071B",
".  c #0F081C",
"X  c #120C1E",
"o  c #190E1F",
"O  c #15161C",
"+  c #141819",
"@  c #0D141D",
"#  c #2D1E1D",
"$  c #191A22",
"%  c #191B27",
"&  c #1A1932",
"*  c #2A1E2E",
"=  c #1E2626",
"-  c #1F272B",
";  c #1E2C2B",
":  c #1F2A27",
">  c #1F2F30",
",  c #1D2032",
"<  c #1E3235",
"1  c #22242A",
"2  c #232A2D",
"3  c #2A2F2F",
"4  c #3B2C25",
"5  c #372B2C",
"6  c #2E322E",
"7  c #252F32",
"8  c #292E31",
"9  c #242837",
"0  c #243233",
"q  c #283031",
"w  c #27393C",
"e  c #322433",
"r  c #512C1C",
"t  c #6A2908",
"y  c #7A2D08",
"u  c #71300F",
"i  c #7E310C",
"p  c #6F2F10",
"a  c #722E11",
"s  c #6B3418",
"d  c #713111",
"f  c #7D3412",
"g  c #482D25",
"h  c #542D29",
"j  c #472D32",
"k  c #543030",
"l  c #48352C",
"z  c #7F3D24",
"x  c #623328",
"c  c #73411F",
"v  c #79432C",
"b  c #77563E",
"n  c #68482E",
"m  c #1D3A40",
"M  c #253A44",
"N  c #354346",
"B  c #34434A",
"V  c #344A4E",
"C  c #3F4747",
"Z  c #2C4B54",
"A  c #314B53",
"S  c #285C5E",
"D  c #275E5F",
"F  c #345054",
"G  c #31565E",
"H  c #35595C",
"J  c #284246",
"K  c #275D61",
"L  c #376669",
"P  c #2E6C71",
"I  c #785B46",
"U  c #66574C",
"Y  c #40605F",
"T  c #776958",
"R  c #656B5C",
"E  c #4E696E",
"W  c #547571",
"Q  c #7D6F62",
"!  c #7A7975",
"~  c #81310B",
"^  c #853614",
"/  c #8B3714",
"(  c #853913",
")  c #8B3913",
"_  c #883D1C",
"`  c #8C421E",
"'  c #96451D",
"]  c #9A441C",
"[  c #954017",
"{  c #A2471E",
"}  c #A3491D",
"|  c #894627",
" . c #944622",
".. c #934927",
"X. c #924D2C",
"o. c #9F4E2C",
"O. c #9A4F30",
"+. c #8E5137",
"@. c #8A5338",
"#. c #9B5033",
"$. c #A34D22",
"%. c #A24B27",
"&. c #A3522C",
"*. c #AC552D",
"=. c #AA5223",
"-. c #B55527",
";. c #B95627",
":. c #B55827",
">. c #B4562B",
",. c #B55C2E",
"<. c #BC5D2D",
"1. c #B85529",
"2. c #A75B36",
"3. c #B75C31",
"4. c #B95C32",
"5. c #BA6135",
"6. c #BD643A",
"7. c #B7673A",
"8. c #C25C2D",
"9. c #C56333",
"0. c #C96434",
"q. c #C2663B",
"w. c #C56A3C",
"e. c #CC6B3D",
"r. c #CF6935",
"t. c #D16F3D",
"y. c #CE703D",
"u. c #DB743E",
"i. c #D3723F",
"p. c #C7632E",
"a. c #E2743E",
"s. c #855940",
"d. c #896A55",
"f. c #A86143",
"g. c #BE704D",
"h. c #AB6A51",
"j. c #BB785A",
"k. c #BB6746",
"l. c #C56D46",
"z. c #CB6E43",
"x. c #CB6F49",
"c. c #C26F49",
"v. c #D36D41",
"b. c #CB7249",
"n. c #C97847",
"m. c #D47141",
"M. c #DC7442",
"N. c #D47548",
"B. c #C67852",
"V. c #E07641",
"C. c #E97D43",
"Z. c #AE8D62",
"A. c #B88E61",
"S. c #DA965D",
"D. c #CE8C59",
"F. c #EC8449",
"G. c #FC8546",
"H. c #FE8548",
"J. c #F58748",
"K. c #FB914F",
"L. c #E39A5E",
"P. c #E7985B",
"I. c #FB9151",
"U. c #FB9A59",
"Y. c #F8A35C",
"T. c #C18066",
"R. c #DE9A60",
"E. c #D59761",
"W. c #FBAF6A",
"Q. c #3FA4A3",
"!. c #56898F",
"~. c #438E91",
"^. c #47999C",
"/. c #5E8E97",
"(. c #6D928B",
"). c #6D8F91",
"_. c #6C959C",
"`. c #699599",
"'. c #6A8C91",
"]. c #42A29F",
"[. c #6D95A1",
"{. c #689BA2",
"}. c #7494A1",
"|. c #42A2A1",
" X c #4CA7AA",
".X c #5DAFB0",
"XX c #5FB7B9",
"oX c #58B8BA",
"OX c #58A1A3",
"+X c #64A3AA",
"@X c #68A4AB",
"#X c #64ACB3",
"$X c #68ADB5",
"%X c #64B1B4",
"&X c #63B4BA",
"*X c #63B9BC",
"=X c #6AB2B6",
"-X c #5EBFC7",
";X c #61BDC1",
":X c #4ECBCC",
">X c #4EC6C9",
",X c #54C3C2",
"<X c #5EC1C5",
"1X c #53C6C8",
"2X c #5FC6CA",
"3X c #55C9CA",
"4X c #5DCDD2",
"5X c #4FD1D4",
"6X c #5DD6D6",
"7X c #65C4C5",
"8X c #62C5CA",
"9X c #64CDCC",
"0X c #62CAD2",
"qX c #60D1D6",
/* pixels */
"& & & & & & & & & & & % < K S S S 6 | X.s z h X                 ",
"& & & & & & & , M L ~.<X2X0X.X'.d.z.Y.S.^ u.*._ h X             ",
"& & & & & Z P  X7X7X%X/.W L E v J.Y.i.M.^ V.*.9.k.l 1 .         ",
"& & & 9 L OX*X*X!.E H J , q r *.J.W.=.i./ V.>.9.q.n W G X       ",
"& & & ^.-X_.`.L w = 2 q 3 6 ` a.U.S.} u./ V.*.9.e.i T *XP X .   ",
"& , ~..X#X!.M 2 8 8 8 q 3 4 9.H.Y.S.{ u./ M.&.9.e.:.2.`.XXZ X   ",
", K *X{.'.8 1 8 8 8 8 8 5 s a.J.P.D.{ u./ M.*.9.t.:.3.T {.,XM X ",
"A oX*X=XM 1 6 8 8 8 8 q 4  .G.K.S.n.{ t.^ a.>.9.e.:.y.v &XXX X@ ",
"P .X_.E O q q 8 8 8 8 8 4  .J.C.n.2.] N.^ u.&.0.e.;.m.d N {. Xm ",
"3X7X&X7 8 q 8 8 8 8 8 8 4 ' <.8.5.5.-.5.^ <.' 5.6.1.z.d F XX2XQ.",
"oX@X_.1 8 8 8 8 8 8 8 8 4 ' 8.-.o.h.b.B.c.6.,.<.>.] %.t N _.%X|.",
"5XqX9X< 8 q 8 8 8 8 8 8 4 ' G.F.7._ y (  .O.j.g.T.w.w.3.R 0X6XQ.",
"oX.X_.: 8 8 8 8 8 8 8 8 4 ' G.I.S.l.} y.i =.y i ` ` f.f.U `.$X].",
",XXX=X2 q q 8 8 8 8 8 8 4 ' H.I.L.l.} t./ N.&.9.,.} o.t V #X<X|.",
">XXX$X; q 8 q 8 8 8 8 8 4 ' H.I.E.d.X.z.^ V.>.9.q.:.e.p V #X<X|.",
",X.X@X1 8 q 8 8 8 8 8 8 4 ' H.I.Z.! I N.( M.>.9.q.;.v.a V +X*X|.",
">X-X*X> 8 q 8 8 8 8 8 8 4 ' H.I.E.I ..M.( V.3.0.z.;.m.d F &X2XQ.",
",X@X[.: 8 8 q 8 8 8 8 8 4 ' H.I.E.b  .M./ M.&.0.e.1.v.d B _.%X].",
"5X6X9X0 8 8 8 8 8 8 8 8 4 ' H.I.E.b  .M./ M.*.9.q.;.v.a H 4X6X|.",
",X@X}.1 8 6 8 8 8 8 8 8 4 ' H.I.Z.! s.N./ V.>.0.w.1.v.u N _.=X|.",
"1X<X*X> 8 8 8 8 8 8 8 8 4 ' H.I.A.Q @.N.^ M.*.0.e.;.v.u F &X2X|.",
",X+X[.= 8 8 8 8 8 8 8 8 4 ' H.I.L.b.$.u./ m.&.9.q.:.q.a C `.&X].",
"1X;X=X; 8 8 8 8 8 8 8 8 4 ] G.K.L.z.{ M./ i.' -.,.>.5.*.v (.8X].",
":X;X=X; 8 2 8 8 8 8 8 8 4 ' G.K.L.7.) 8.] 4.q.q.B.n.j.2.@.(.7XQ.",
"oX+X[.1 q 8 8 8 8 8 8 8 4 ] r.0.w.q.6.B.B.b.h...X.^ i t C _.$X|.",
":X4X7X< q 8 8 q 3 3 8 2 4  .} e.l.j.O.&.f y y ' ' -.e.a G 8X4X|.",
",X{.[.1 8 8 8 8 8 8 8 8 4 ] J.0.^ i ) 3.f M.>.9.t.1.v.a M [.$X|.",
"S A B $ O O O O O $ % % # ' G.K.L.x.} M.) M.*.9.e.:.7.r 1 V F Z ",
"& & & & . . . . . & & & * ..H.I.L.x.{ M.) M.&.9.2.x j & * & & & ",
"& & & & . .   .   & & & * ..H.I.S.l.} u./ v.v k e & & & & & & & ",
"& & & &           & & & * ..H.I.S.k.{ 6.h e & & & & & & & & & & ",
"& & & &           & & & * | C.F.D.@.j e & & & & & & & & & & & & "
};
