/* XPM */
static char *result[] = {
/* columns rows colors chars-per-pixel */
"32 32 110 2 ",
"   c #020101",
".  c #090404",
"X  c #080C06",
"o  c #1E0D0D",
"O  c #0E130C",
"+  c #11170C",
"@  c #0B0614",
"#  c #0D0B15",
"$  c #0E071B",
"%  c #121316",
"&  c #181F17",
"*  c #11121D",
"=  c #15191B",
"-  c #261F15",
";  c #192312",
":  c #1B231B",
">  c #1F2A1F",
",  c #212D1B",
"<  c #24321C",
"1  c #29391E",
"2  c #141425",
"3  c #171A23",
"4  c #191B25",
"5  c #16152B",
"6  c #18172D",
"7  c #171829",
"8  c #18192B",
"9  c #1A1932",
"0  c #1D2522",
"q  c #232C24",
"w  c #273423",
"e  c #293623",
"r  c #2C3B25",
"t  c #2E3C28",
"y  c #3D3B25",
"u  c #2E4022",
"i  c #334325",
"p  c #354A27",
"a  c #34452A",
"s  c #3D4528",
"d  c #364C2A",
"f  c #394E2B",
"g  c #3C532D",
"h  c #3D5430",
"j  c #464D23",
"k  c #5E4933",
"l  c #425C32",
"z  c #72523C",
"x  c #466134",
"c  c #496536",
"v  c #4C6A37",
"b  c #4E6C39",
"n  c #536837",
"m  c #53733C",
"M  c #58733B",
"N  c #57793F",
"B  c #6E6425",
"V  c #65672B",
"C  c #617B3D",
"Z  c #567940",
"A  c #597C42",
"S  c #907B2A",
"D  c #905F49",
"F  c #8A684A",
"G  c #97624C",
"H  c #6D843E",
"J  c #5D8344",
"K  c #608545",
"L  c #658845",
"P  c #658D4A",
"I  c #6A8F49",
"U  c #728D44",
"Y  c #7A894F",
"T  c #67904B",
"R  c #6A944D",
"E  c #6D984F",
"W  c #6E9A50",
"Q  c #719E52",
"!  c #75A455",
"~  c #78A656",
"^  c #78A857",
"/  c #7BAC5A",
"(  c #7FB15C",
")  c #AC9C3F",
"_  c #829846",
"`  c #92A74F",
"'  c #82A751",
"]  c #80AF59",
"[  c #82B55E",
"{  c #89B75C",
"}  c #86B95F",
"|  c #8BBA5E",
" . c #A6BD53",
".. c #B2BD52",
"X. c #83B760",
"o. c #85BA61",
"O. c #8ABE61",
"+. c #C0B34E",
"@. c #8EC263",
"#. c #92C462",
"$. c #96CA65",
"%. c #9ACB64",
"&. c #9FD267",
"*. c #A5D567",
"=. c #A8D766",
"-. c #AAD967",
";. c #AFE16B",
":. c #BAE86C",
">. c #FDE14C",
",. c #FCE951",
/* pixels */
"9 9 9 9 9 9 9 9 9 9 9 9 9 9 9 9 9 9 9 $ $ $ $ $ $ $ $ $ $ $ $ $ ",
"9 9 9 9 9 9 9 9 9 9 9 4 0 0 4 q q 2 5 $ $ $ $ $ $ $ $ $ $ $ $ $ ",
"9 9 9 9 9 9 9 9 9 4 a ' :.-.o.[ %.J f 0 6 9 9 9 $ $ $ $ $ $ $ $ ",
"9 9 9 9 9 9 9 9 4 A *.=.#.O.o.o.[ o.X.Q l 6 9 9 $ $ $ $ $ $ $ $ ",
"9 9 9 9 9 9 9 6 h / [ [ } { ( [ o.o.o.o./ c 4 9 $ $ $ $ $ $ $ $ ",
"9 9 9 9 9 9 9 0 Q C L ! / V _ _ o.o.~ X.O.! q 9 $ $ $ $ $ $ $ $ ",
"9 9 9 9 9 9 9 i U ) ` ( [ j ,. .o.o.o.] O.[ m 2 $ $ $ $ $ $ $ $ ",
"$ $ $ $ 9 9 9 t C ....( ~ j >. .o.o./ { ~ o.[ h $ $ $ $ $ $ $ $ ",
"$ $ $ $ 9 9 9 e R V U } ( M B H o.o.( ! ( o.o.^ h # $ $ $ $ $ $ ",
"$ $ $ $ 9 9 9 w / / [ o.o.[ ( [ o.o.o.o.o.( o.o.[ l @ $ $ $ $ $ ",
"$ $ $ $ 9 9 9 1 ( o.o.o.} o.} { o.o.o.o.o.~ ~ o.o.! r $ $ $ $ $ ",
"$ $ $ $ 9 9 6 e E W R L L R Q Q ! ( ^ / o.o.^ o.o.o./ t @ $ $ $ ",
"$ $ $ $ $ $ # g O d X X X X < i O p T W ~ ^ / o.O.%.o.A # $ $ $ ",
"$ $ $ $ $ @ c < O p     o o , s .   ; ! ~ b b ! X.#.%./ , $ $ $ ",
"$ $ $ $ $ e v v m N , k G G F Y z y g ( [ W b l W X.@.( i $ $ $ ",
"$ $ $ $ @ P M x E / } =.%.$.$.[ ^ ^ [ $.o./ P J e Q X.o.J % $ $ ",
"$ $ $ @ M O.R u T W W W ! o.( W T E ( o.o./ E J % l ^ o.( > $ $ ",
"9 9 9 q { / c N W ! ! ( ( o.@.o.( ( o.o.o.^ T J = u ! ( ^ q 9 9 ",
"9 9 8 n @.Q d J W Q / ( o.&.$.;.&.@.o.o.( ( W J + P ( o.A 2 9 9 ",
"9 9 3 T } Q g J R ! ( ( o./ #.$.#.@.o.o.( ^ T Z 1 @.@.( R 0 9 9 ",
"9 9 3 J ^ W h c P W W R ( ( o.o.o.o.( @.( / T u > o.@./ R > 9 9 ",
"9 9 5 g R p + h J P T P T Q o./ ( ( @.( ( ! T > < ^ o.^ ( > 9 9 ",
"9 9 6 @ l % @ A ! ! T f f m J P E J ( @.( ( E g : J R b : 7 9 9 ",
"9 9 9 9 # $ : W ( / R J m 0 3 3 3 w T ( ! ( W h 2 e ; 7 2 9 9 9 ",
"9 9 9 9 $ $ e / o./ W P a 8 9 9 9 9 w ! ^ R T h 5 5 2 9 9 9 9 9 ",
"9 9 9 9 $ $ r } o.( W m 3 9 9 9 9 9 7 l ( / T Z = 9 9 9 9 9 9 9 ",
"9 9 9 9 $ $ u %.o.( W t 8 9 9 9 9 9 5 e W X.^ L w 9 9 9 9 9 9 9 ",
"9 9 9 9 $ $ i *.o.o.! 0 9 9 9 9 9 9 8 e b / X.! J = 9 9 9 9 9 9 ",
"9 9 9 9 $ @ l $.@.o.^ c 2 9 9 9 9 9 2 a W W ~ ( Q l 2 9 9 9 9 9 ",
"9 9 9 9 $ : T ! ( ( ^ R t 9 9 9 9 9 7 v ~ [ W ( @.( t 6 9 9 9 9 ",
"9 9 9 9 $ % i e t a e w > 2 9 9 9 9 3 e t t w t t f t * 9 9 9 9 ",
"9 9 9 6 $ $ $ $ $ 9 9 9 9 9 9 9 9 9 9 9 9 9 9 9 9 9 9 9 9 9 9 9 "
};
