/* XPM */
static char *result[] = {
/* columns rows colors chars-per-pixel */
"32 32 2 1 ",
"  c #1A1932",
". c #0E071B",
/* pixels */
"                   .............",
"                   .............",
"                        ........",
"                        ........",
"                        ........",
"                        ........",
"                        ........",
"....                    ........",
"....                    ........",
"....                    ........",
"....                    ........",
"....                    ........",
"................................",
"................................",
"................................",
"................................",
"................................",
"    ..........                  ",
"    ..........                  ",
"    ..........                  ",
"    ..........                  ",
"    ..........                  ",
"    .....                       ",
"    .....                       ",
"    .....                       ",
"    .....                       ",
"    .....                       ",
"    .....                       ",
"    .....                       ",
"    .....                       ",
"    .....                       ",
"    .....                       "
};
