/* XPM */
static char *result[] = {
/* columns rows colors chars-per-pixel */
"32 32 197 2 ",
"   c #1A1932",
".  c #0E071B",
"X  c #1A1933",
"o  c #1A1B36",
"O  c #1A1B35",
"+  c #0F0B21",
"@  c #0F0A1F",
"#  c #0F091E",
"$  c #0B0B17",
"%  c black",
"&  c #090512",
"*  c #18182F",
"=  c #161830",
"-  c #1E151D",
";  c #22100B",
":  c #302A27",
">  c #33302E",
",  c #333308",
"<  c #2C2509",
"1  c #17101B",
"2  c #0D081A",
"3  c #101122",
"4  c #673120",
"5  c #AB5236",
"6  c #EED1C4",
"7  c #F9EBE3",
"8  c #FFFF27",
"9  c #DDBA2D",
"0  c #442116",
"q  c #0C081A",
"w  c #0E071C",
"e  c #121223",
"r  c #111021",
"t  c #101020",
"y  c #10101F",
"u  c #100F1F",
"i  c #101021",
"p  c #101223",
"a  c #0A0D18",
"s  c #7B574B",
"d  c #CD927D",
"f  c #CC9DA3",
"g  c #CB9FAC",
"h  c #999917",
"j  c #A39C1E",
"k  c #CBA839",
"l  c #CCA135",
"z  c #CD9730",
"x  c #523C13",
"c  c #0D091B",
"v  c #0F081D",
"b  c #05040B",
"n  c #99918B",
"m  c #DACECB",
"M  c #984E71",
"N  c #7E2553",
"B  c #190711",
"V  c #B27C41",
"C  c #666610",
"Z  c #0D0A1C",
"A  c #0C0617",
"S  c #090713",
"D  c #7C7573",
"F  c #8F8B54",
"G  c #746E6E",
"H  c #986B1B",
"J  c #996200",
"K  c #7D7674",
"L  c #867560",
"P  c #997809",
"I  c #D1C990",
"U  c #BDB3B4",
"Y  c #5B3D4A",
"T  c #320F21",
"R  c #111A32",
"E  c #18182E",
"W  c #84591A",
"Q  c #FFC810",
"!  c #665006",
"~  c #0D0B1D",
"^  c #07030D",
"/  c #CCC1BA",
"(  c #FFF1E8",
")  c #D5CF79",
"_  c #686370",
"`  c #FDB12D",
"'  c #FFA300",
"]  c #8B848C",
"[  c #B0977B",
"{  c #F6EE94",
"}  c #EDE0DA",
"|  c #1D2B53",
" . c #172242",
".. c #664100",
"X. c #0E0B1F",
"o. c #06030C",
"O. c #CCCA3E",
"+. c #FFFC4E",
"@. c #FFB508",
"#. c #FEDF31",
"$. c #FDFA4C",
"%. c #C98132",
"&. c #BC622B",
"*. c #F1DC46",
"=. c #D7A12A",
"-. c #FEFC3D",
";. c #333210",
":. c #0E0C1F",
">. c #CCCC1F",
",. c #FFDA17",
"<. c #BC7533",
"1. c #EEDC2A",
"2. c #06030B",
"3. c #CC8200",
"4. c #872E4D",
"5. c #E58A11",
"6. c #B25732",
"7. c #A36800",
"8. c #A2493C",
"9. c #A44B3B",
"0. c #A74E38",
"q. c #934532",
"w. c #89422B",
"e. c #6C253E",
"r. c #651E42",
"t. c #B76E0D",
"y. c #8E4628",
"u. c #EBCD17",
"i. c #473915",
"p. c #181D38",
"a. c #75460A",
"s. c #0D0B1E",
"d. c #994042",
"f. c #98514A",
"g. c #0D091C",
"h. c #0B0A15",
"j. c #524D4A",
"k. c #66605D",
"l. c #B77A3B",
"z. c #CD7220",
"x. c #B45B30",
"c. c #903747",
"v. c #3A161D",
"b. c #06060F",
"n. c #06040E",
"m. c #0B0B15",
"M. c #06070E",
"N. c #856F1B",
"B. c #BA847B",
"V. c #B2778F",
"C. c #756A1A",
"Z. c #C37F30",
"A. c #DD8316",
"S. c #593409",
"D. c #15152B",
"F. c #0A0A14",
"G. c #878083",
"H. c #786E75",
"J. c #FFED1F",
"K. c #151529",
"L. c #CBC65D",
"P. c #FCF772",
"I. c #F5B713",
"U. c #D3791C",
"Y. c #0C0819",
"T. c #17162C",
"R. c #301C1B",
"E. c #5F544F",
"W. c #594A12",
"Q. c #25181E",
"!. c #18172F",
"~. c #0B0A14",
"^. c #EE930B",
"/. c #0B0B16",
"(. c #000001",
"). c #111020",
"_. c #D38602",
"`. c #7B6813",
"'. c #665F0C",
"]. c #17172D",
"[. c #15152A",
"{. c #010001",
"}. c #CC8300",
"|. c #151429",
" X c #1A1A33",
".X c #06060C",
"XX c #040207",
"oX c #0E081D",
"OX c #0B0615",
"+X c #121325",
"@X c #04040A",
"#X c #040409",
"$X c #0D0719",
"%X c #0D0D1A",
"&X c #191830",
"*X c #0F091F",
"=X c #0E081C",
/* pixels */
"                                      . . . . . . . . . . . . . ",
"                                      . . . . . . . . . . . . . ",
"                                                . . . . . . . . ",
"                                                . . . . . . . . ",
"                                      X o o o O + @ # . . . . . ",
"                                      $ % % % % % % % % & . . . ",
"                                  * = - ; : > , , , < ; 1 2 . . ",
". . . .                           3 % 4 5 6 7 8 8 8 9 5 0 % q . ",
". . w 2 e r t y u y y t t y i 3 p a % s d f g h j k l z x % c . ",
". . v b % % % % % % % % % % % % % % % n m M N % B N V 8 C % Z . ",
". A S D n h h h h h F G H J K L J P h I U Y T R E T W Q ! % ~ . ",
". ^ % / ( 8 8 8 8 8 ) _ ` ' ] [ ' Q 8 { } > % |  .% ..' ..% X.. ",
". o.% O.+.@.@.@.@.@.#.$.%.&.$.*.&.=.8 -.$.;.% |  .% ..' ..% :.. ",
". o.% >.8 ' ' ' ' ' ,.8 <.5 8 1.5 z 8 8 8 , % |  .% ..' ..% :.. ",
". 2.% 3.' 5 5 5 5 5 5 5 4.N ' 5.N 6.' ,.8 , % |  .% ..' ..% :.. ",
". 2.% 7.3.8.9.5 0.8.q.w.e.r.3.t.r.y.3.u.8 i.B  .p.B a.' ..% s.. ",
". o.% % % N 4.5 d.N T % % % % % % % % h 8 f.N % B N 6.' ..% g.. ",
"  h.% j.k.V l.z.x.c.v.% b.n.h.m.m.M.% N.9 B.V.C C.V Z.A.S.% D.  ",
"  F.% G.H.8 J.' A.5 0 % c .       y % 4 5 6 ( 8 8 8 9 5 0 % K.  ",
"  F.% L.P.Q I.z.U.A.S.% Y..       T.i R.0 E.k.C C C W.0 Q.t !.  ",
"  ~.% >.8 ' ^.5 z.' ..% Y..           /.% % % % % % % (.).      ",
"  h.% >.8 ' _.; `.J.'.% Y..           ].K.[.[.K.[.K.K.K.!.      ",
"  /.{.>.8 ' }.% C 8 C (.|.                                      ",
"     X.X% % XXoXOX% +XX                                         ",
"      F.@X#Xo.. $X%X&X                                          ",
"      X @ *X=X. .                                               ",
"        . . . . .                                               ",
"        . . . . .                                               ",
"        . . . . .                                               ",
"        . . . . .                                               ",
"        . . . . .                                               ",
"        . . . . .                                               "
};
