/* XPM */
static char *result[] = {
/* columns rows colors chars-per-pixel */
"32 32 199 2 ",
"   c #040403",
".  c #0A0601",
"X  c #0A0903",
"o  c #05050B",
"O  c #05080F",
"+  c #0A0A0F",
"@  c #180F0C",
"#  c #15110C",
"$  c #1D1C0A",
"%  c #070713",
"&  c #0C0617",
"*  c #0A0B14",
"=  c #0E071B",
"-  c #0E091D",
";  c #070912",
":  c #170C15",
">  c #131217",
",  c #191912",
"<  c #13111B",
"1  c #191A1A",
"2  c #181618",
"3  c #271A0A",
"4  c #230D1C",
"5  c #241817",
"6  c #3B1C1B",
"7  c #301F17",
"8  c #1F210E",
"9  c #1F2015",
"0  c #292408",
"q  c #3C251D",
"w  c #262811",
"e  c #0E0D22",
"r  c #100E23",
"t  c #0E1121",
"y  c #131223",
"u  c #1E1E23",
"i  c #15162B",
"p  c #18172E",
"a  c #15182B",
"s  c #19192E",
"d  c #1A1522",
"f  c #1A1932",
"g  c #161831",
"h  c #271723",
"j  c #3E142C",
"k  c #1D2025",
"l  c #282424",
"z  c #392126",
"x  c #4F3200",
"c  c #40340E",
"v  c #5C3909",
"b  c #482614",
"n  c #4E2E16",
"m  c #693A12",
"M  c #4C1D25",
"N  c #422620",
"B  c #5C3024",
"V  c #493C37",
"C  c #642A34",
"Z  c #642733",
"A  c #773A2E",
"S  c #464218",
"D  c #584D10",
"F  c #5C5F1B",
"G  c #664703",
"H  c #695D0B",
"J  c #68481C",
"K  c #78450E",
"L  c #62620F",
"P  c #686810",
"I  c #656515",
"U  c #7C6113",
"Y  c #574737",
"T  c #684D21",
"R  c #784623",
"E  c #65592D",
"W  c #686632",
"Q  c #5E2F45",
"!  c #7E2D44",
"~  c #41414A",
"^  c #5E5551",
"/  c #685D51",
"(  c #7D775E",
")  c #686357",
"_  c #7C7468",
"`  c #82343D",
"'  c #8E5A00",
"]  c #875504",
"[  c #8E5118",
"{  c #8E6705",
"}  c #8E790C",
"|  c #827718",
" . c #9D7607",
".. c #B17207",
"X. c #AF6B1B",
"o. c #A66A09",
"O. c #8B452F",
"+. c #934F20",
"@. c #815328",
"#. c #9B5529",
"$. c #835039",
"%. c #9D4839",
"&. c #A4542A",
"*. c #A44B3B",
"=. c #AC5435",
"-. c #B46434",
";. c #AE7D3A",
":. c #BD7C34",
">. c #BB622B",
",. c #D37B1D",
"<. c #D2771C",
"1. c #C57412",
"2. c #C76D23",
"3. c #C97726",
"4. c #80444B",
"5. c #9B4843",
"6. c #975F4D",
"7. c #856054",
"8. c #8D7B44",
"9. c #9D5F78",
"0. c #A77A60",
"q. c #8D8B16",
"w. c #8E891D",
"e. c #93811C",
"r. c #9B9918",
"t. c #A09F1A",
"y. c #8E8B3F",
"u. c #969523",
"i. c #B08E25",
"p. c #A59A21",
"a. c #BF9E38",
"s. c #B68C31",
"d. c #BBB622",
"f. c #D58B07",
"g. c #C99F0C",
"h. c #DC9F0B",
"j. c #DA891C",
"k. c #E99401",
"l. c #EA9509",
"z. c #EF9D0F",
"x. c #E59013",
"c. c #D5BC18",
"v. c #FDBD0D",
"b. c #EFA414",
"n. c #F0AF14",
"m. c #F5B616",
"M. c #EAA106",
"N. c #C7802C",
"B. c #DA9320",
"V. c #C68734",
"C. c #D39B39",
"Z. c #E19F3B",
"A. c #E2A23E",
"S. c #E3BA26",
"D. c #CFAF2F",
"F. c #D9CE1D",
"G. c #E8C819",
"H. c #FFC311",
"J. c #FFD113",
"K. c #D5C828",
"L. c #EBC527",
"P. c #FAD525",
"I. c #E2C13D",
"U. c #F9D935",
"Y. c #F1E620",
"T. c #FFF623",
"R. c #FFF42C",
"E. c #FEE430",
"W. c #FFFA37",
"Q. c #9B964A",
"!. c #959151",
"~. c #8E8A4A",
"^. c #A7824F",
"/. c #B7B050",
"(. c #C99958",
"). c #CCB159",
"_. c #EAB950",
"`. c #D9CE49",
"'. c #FFFD43",
"]. c #E4E056",
"[. c #FFE856",
"{. c #D9CE72",
"}. c #FFF568",
"|. c #F8E375",
" X c #FFF778",
".X c #ECD54F",
"XX c #9D9180",
"oX c #9C8C86",
"OX c #B88F94",
"+X c #BCA39D",
"@X c #C79A9F",
"#X c #C79387",
"$X c #C3A99C",
"%X c #D5B2B3",
"&X c #D7C295",
"*X c #E2D69D",
"=X c #D9CEA1",
"-X c #F8EEB1",
";X c #E3D8C0",
/* pixels */
"f f f f f f f f f f f f f f g f f f f - & = = = = = = = = = = = ",
"f f f f f f f f f g f f g f f g f f f t e - = = = = = = = = = = ",
"f f f f f f f f k t X X + X o       X X > a f p = = = = = = = = ",
"f f f f f f f p l F q.q.y.( V 8 G } w.~._ ~ p p = = = = = = = = ",
"f f f f f f p < 0 r.T.R.}.*X_ n ..v.U. X=X) 2 p = = = = = = = = ",
"f f f f f f p < 0  .v.H.P.].^.! &.j.m.U.`.W , i = = = = = = = = ",
"f f f f f f p y 3 ] f.l.m.L.V.5.*.2.z.J.F.P $ p = = = = = = = = ",
"= = = = f f f f s 5 n +.<.x.<.=.=.2.z.J.F.P , y = = = = = = = = ",
"= = = = f f s p h S U X.<.<.>.*.=.2.z.H.F.P , i = = = = = = = = ",
"= = = = f f p y w q.F.h.1.&.` ! %.3.b.P.K.I , i = = = = = = = = ",
"= = = = f f f p k S H G v b 6 M O.3.L.}.{.W 2 i = = = = = = = = ",
"= = = = f f f f s - O O % o   @ A :.S.|.&X/ 2 d = = = = = = = = ",
"= = = = = = = = - - e t e - % : C 5.:.Z.C.J $ & = = = = = = = = ",
"= = = = = = = = - - = = - - % 3 A -.3._.C.J @ & = = = = = = = = ",
"= = = = = = = = - = = = - = % 3 o.b.U.|.%X/ > & = = = = = = = = ",
"= = = = = = = = = = = = = & % 3 [ :.C._.).E > & = = = = = = = = ",
"= = = = = = = = = = = = = = + @ Z %.-.j.f.G # - r - = = = = = = ",
"f f f f = = = = = = = = - % X 3 [ B.S.P.c.L # * y p f f f f f f ",
"f f f f = = = = = = = r d 7 q L g.J.T.'.].!.Y z 5 p f f f f f f ",
"f f g g = = = = = = r < q R i.K.Y.T.W. X-X;X$X6.B 2 i g f f f f ",
"f f f f = = = = = e e < Y 0./.a.r.r.u.!.!.+X$X#X7.2 y f f f f f ",
"f f f f = = = = = = e d ^ +XOX! q $ $ 3 f Q 9.%XoX1 t p f f f f ",
"f f f f = = - - - f i 1 W /.8.j < y y y f 4 Y ).Q.9 t p f f f f ",
"f f f f = = & & - f a 1 I d.U 5 i f f f f r n d.r.0 y s f f f f ",
"f f f f = = = = = f i 1 L d.s.C 4 o o o : j R K.t.8 t p f f f f ",
"f f f f = = = = = f i 2 D i.V.#.m x x x v $.;.D.e., y p f f f f ",
"f f f f = = = = = f i < b #.j.l.k.k.k.k.M.G.L.:.R # t p f f f f ",
"f f f f = = = = = f p i l n K ' ' ' ' ' { } | J N s g f f f f f ",
"f f f f = = = = = f f f y *   X . . . . . X X X > s f f f f f f ",
"f f f f = = = = = f f f f f f f g f f f f f f f p f f f f f f f ",
"f f f f = = = = = f f f f f f f f f f f f f f f f f f f f f f f ",
"f f f f = = = = = f f f f f f f f f f f f f f f f f f f f f f f "
};
