/* XPM */
static char *result[] = {
/* columns rows colors chars-per-pixel */
"32 32 178 2 ",
"   c #030304",
".  c #0D0D0D",
"X  c #07040E",
"o  c #18130E",
"O  c #0D0D15",
"+  c #0E071B",
"@  c #0A0817",
"#  c #120B1E",
"$  c #0F1116",
"%  c #131415",
"&  c #14131C",
"*  c #1C1D1D",
"=  c #191715",
"-  c #26231A",
";  c #332B1D",
":  c #39291F",
">  c #39331A",
",  c #160F22",
"<  c #141520",
"1  c #191425",
"2  c #1F1C24",
"3  c #1B1B2E",
"4  c #1A1932",
"5  c #221C2C",
"6  c #231925",
"7  c #201F37",
"8  c #1F2231",
"9  c #232225",
"0  c #24232C",
"q  c #2B2B2C",
"w  c #3F2821",
"e  c #39212D",
"r  c #232135",
"t  c #2D2B34",
"y  c #24233A",
"u  c #2C2C3C",
"i  c #29273A",
"p  c #322C38",
"a  c #323334",
"s  c #33313A",
"d  c #373838",
"f  c #3B3B3C",
"g  c #3F313A",
"h  c #44330D",
"j  c #493C1B",
"k  c #431A23",
"l  c #422624",
"z  c #4A3D3B",
"x  c #6D3334",
"c  c #655012",
"v  c #795D1F",
"b  c #7C6113",
"n  c #4C4220",
"m  c #40403F",
"M  c #4C4033",
"N  c #5C463A",
"B  c #695823",
"V  c #735C28",
"C  c #61403E",
"Z  c #7D4135",
"A  c #7C6020",
"S  c #746135",
"D  c #1E2544",
"F  c #2E2D42",
"G  c #252F4E",
"H  c #323145",
"J  c #3A3643",
"K  c #3B3B43",
"L  c #353448",
"P  c #3C3B4A",
"I  c #38374C",
"U  c #24355B",
"Y  c #2B385A",
"T  c #393E57",
"R  c #413242",
"E  c #1A437B",
"W  c #344060",
"Q  c #2B4775",
"!  c #2D5378",
"~  c #3A5077",
"^  c #3E567C",
"/  c #464345",
"(  c #44444B",
")  c #474849",
"_  c #49484B",
"`  c #4B4A5A",
"'  c #434356",
"]  c #534C56",
"[  c #59595B",
"{  c #55555E",
"}  c #6F524A",
"|  c #6C5858",
" . c #66625E",
".. c #565663",
"X. c #605F66",
"o. c #5D637D",
"O. c #68676E",
"+. c #676769",
"@. c #6C6C72",
"#. c #7F6F70",
"$. c #706E73",
"%. c #737377",
"&. c #7B786B",
"*. c #823631",
"=. c #83640E",
"-. c #91700F",
";. c #87641A",
":. c #927118",
">. c #AC771A",
",. c #964437",
"<. c #A74F3A",
"1. c #A6503B",
"2. c #B0573E",
"3. c #8D7128",
"4. c #987829",
"5. c #856E30",
"6. c #874F4A",
"7. c #9A5B4B",
"8. c #815351",
"9. c #A15545",
"0. c #B75B40",
"q. c #927B4B",
"w. c #AF6148",
"e. c #A56852",
"r. c #B77457",
"t. c #CB7C55",
"y. c #C47356",
"u. c #B68D1B",
"i. c #C0900F",
"p. c #C69A1F",
"a. c #97845C",
"s. c #AD9248",
"d. c #BE9F4B",
"f. c #BFA15E",
"g. c #9D9271",
"h. c #CC8269",
"j. c #D78B60",
"k. c #CA8C75",
"l. c #C79C7B",
"z. c #D59679",
"x. c #E5A376",
"c. c #023B86",
"v. c #0F458D",
"b. c #0F4990",
"n. c #174E94",
"m. c #224B83",
"M. c #365A8C",
"N. c #265391",
"B. c #3B659A",
"V. c #2B62A1",
"C. c #316CA6",
"Z. c #3A69A4",
"A. c #306EA8",
"S. c #3464A2",
"D. c #495882",
"F. c #51698F",
"G. c #42699D",
"H. c #63708B",
"J. c #427FB2",
"K. c #4284B6",
"L. c #448EBC",
"P. c #7C89A0",
"I. c #848487",
"U. c #9D998E",
"Y. c #8E8D92",
"T. c #9C9C9D",
"R. c #909092",
"E. c #A5959E",
"W. c #A78883",
"Q. c #A5A5A6",
"!. c #A8A7A8",
"~. c #ACABAC",
"^. c #B0AFAF",
"/. c #DAAB9E",
"(. c #C8ACA1",
"). c #D9BBA2",
"_. c #ECCBBC",
"`. c #FED8C7",
/* pixels */
"4 4 4 4 4 4 4 4 4 4 4 4 4 4 4 4 4 4 4 + + + + + + + + + + + + + ",
"4 4 4 4 4 4 4 4 4 4 4 4 4 W / G 4 4 4 + + + + + + + + + + + + + ",
"4 4 4 4 4 4 4 4 4 4 4 F E N.^ Q 4 4 4 4 4 4 4 4 + + + + + + + + ",
"4 4 4 4 4 4 4 4 4 4 U E A.A.C.S.E G 4 4 4 4 4 4 + + + + + + + + ",
"4 4 4 4 4 4 4 4 4 4 ~ v.K.J.S.K.C.U 4 4 4 4 4 4 + + + + + + + + ",
"4 4 4 4 4 4 4 4 4 4 n.K.C.L.n.C.o.Q 4 4 4 4 4 4 + + + + + + + + ",
"4 4 4 4 4 4 4 4 4 G c.V.b.A.W.G.o.D.4 4 4 4 4 4 + + + + + + + + ",
"+ + + + 4 4 4 4 4 T Z.m.P.B.z.E.$.U 4 4 4 4 4 4 + + + + + + + + ",
"+ + + + 4 4 4 4 4 4 m.M.).(._./.k.4 4 4 4 4 4 4 + + + + + + + + ",
"+ + + + 4 4 4 4 4 4 7 H.^ r.h.`.j.4 4 4 4 4 4 4 + + + + + + + + ",
"+ + + + 4 4 4 4 4 y ..* -.w Z e.6 4 4 4 4 4 4 4 + + + + + + + + ",
"+ + + + 4 4 4 4 y F & n w j   X d.P 4 4 4 4 4 4 + + + + + + + + ",
"+ + + + + + + + 1 u & ;.C ;.& c B t 1 + + + + + + + + + + + + + ",
"+ + + + + + + + 5 t o z } <.w =.t s P + + + + + + + + + + + + + ",
"+ + + + + + + + [ +.s z | 0.w =.t 2 ) + + + e e + + + + + + + + ",
"+ + + + + + + J +.O.$.l.x.,.o =.t = q / s J e.r.7.6 + + + + + + ",
"+ + + + + + + 2 a q ) z C >.< =.X 0 2 & [ 8.0.t.0.k + + + + + + ",
"4 4 4 4 + + + 2 2 0 t . a u.O :.8 4 i s X.6.*.t.<.J 4 4 4 4 4 4 ",
"4 4 4 4 + + + + 1 # t * d u.O s.$ 4 4 4 7 ] x 7.x 4 4 4 4 4 4 4 ",
"4 4 4 4 + + + + + # = q f a.`  .b & 4 4 4 4 4 p 7 4 4 4 4 4 4 4 ",
"4 4 4 4 + + + + + 6 = f 0 M J F 4.$ 0 4 4 4 4 4 4 4 4 4 4 4 4 4 ",
"4 4 4 4 + + + + 1 2 f q p.1 @.Y.I.-.. 3 4 4 4 4 4 4 4 4 4 4 4 4 ",
"4 4 4 4 + + + @ t m q > ' ` { !.^.g.h   u 4 4 3 4 4 4 4 4 4 4 4 ",
"4 4 4 4 + + + * f a 9 5.4 { a [ !.!.q.= % M 4 4 4 4 4 4 4 4 4 4 ",
"4 4 4 4 + + + V 9 * B J P @.q * I.~.U.3.- ;.4 4 4 4 4 4 4 4 4 4 ",
"4 4 4 4 + + + q.> ; f.r T.) f < f ^.!.&.b 7 4 4 4 4 4 4 4 4 4 4 ",
"4 4 4 4 + + + , S a.8 ' Y.V V ;.4.%.T.T.%.i 4 4 4 4 4 4 4 4 4 4 ",
"4 4 4 4 + + + + q P O...4 4 3 4 4 4 L % * F 4 4 4 4 4 4 4 4 4 4 ",
"4 4 4 4 + + + + q d K y 4 4 4 4 4 4 y O * F 4 4 4 4 4 4 4 4 4 4 ",
"4 4 4 4 + + + + 9 = y 4 4 4 4 4 4 4 3 u * q 4 4 4 4 4 4 4 4 4 4 ",
"4 4 4 4 + + + + d % H 4 4 4 4 4 4 4 4 P a * O O F 4 4 4 4 4 4 4 ",
"4 4 4 4 + + + & ) t q 4 4 4 4 4 4 4 4 % f d a q , 4 4 4 4 4 4 4 "
};
