/* XPM */
static char *result[] = {
/* columns rows colors chars-per-pixel */
"32 32 173 2 ",
"   c #030304",
".  c #0D0D0D",
"X  c #07040E",
"o  c #18130E",
"O  c #0D0E15",
"+  c #0E071B",
"@  c #0A0917",
"#  c #130F1D",
"$  c #131314",
"%  c #13141C",
"&  c #1D1D1E",
"*  c #191715",
"=  c #26231A",
"-  c #332B1D",
";  c #39291F",
":  c #39331A",
">  c #1A0F20",
",  c #151320",
"<  c #191325",
"1  c #1D1B2A",
"2  c #191828",
"3  c #1A1932",
"4  c #221D2D",
"5  c #211F36",
"6  c #24252C",
"7  c #2B2B2C",
"8  c #242425",
"9  c #3F2821",
"0  c #39212D",
"q  c #292737",
"w  c #2E2B34",
"e  c #23223A",
"r  c #272638",
"t  c #302E34",
"y  c #323334",
"u  c #35323A",
"i  c #373838",
"p  c #3B3B3C",
"a  c #3F313A",
"s  c #44330D",
"d  c #493C1B",
"f  c #431A23",
"g  c #422624",
"h  c #4A3D3B",
"j  c #6D3334",
"k  c #655012",
"l  c #795D1F",
"z  c #7C6113",
"x  c #4C4220",
"c  c #40403F",
"v  c #4C4033",
"b  c #5C463A",
"n  c #695920",
"m  c #685626",
"M  c #735C28",
"N  c #61403E",
"B  c #7D4135",
"V  c #7C6020",
"C  c #746135",
"Z  c #222946",
"A  c #3A3643",
"S  c #3B3B43",
"D  c #353448",
"F  c #3C3B4A",
"G  c #38374C",
"H  c #24355B",
"J  c #2B385A",
"K  c #393E57",
"L  c #413242",
"P  c #1A437B",
"I  c #344060",
"U  c #2B4775",
"Y  c #2D5378",
"T  c #3A5077",
"R  c #3E567C",
"E  c #464345",
"W  c #44444B",
"Q  c #474849",
"!  c #49484B",
"~  c #4B4A5A",
"^  c #434356",
"/  c #534C56",
"(  c #59595B",
")  c #55555E",
"_  c #6F524A",
"`  c #6C5858",
"'  c #66625E",
"]  c #565663",
"[  c #605F66",
"{  c #5D637D",
"}  c #68676E",
"|  c #676769",
" . c #6C6C72",
".. c #7F6F70",
"X. c #706E73",
"o. c #737377",
"O. c #7B786B",
"+. c #823631",
"@. c #83640E",
"#. c #91700F",
"$. c #87641A",
"%. c #927118",
"&. c #AC771A",
"*. c #964437",
"=. c #A74F3A",
"-. c #A6503B",
";. c #B0573E",
":. c #8D7128",
">. c #99782F",
",. c #967822",
"<. c #856E30",
"1. c #874F4A",
"2. c #9A5B4B",
"3. c #815351",
"4. c #A15545",
"5. c #B75B40",
"6. c #927B4B",
"7. c #AF6148",
"8. c #A56852",
"9. c #B77457",
"0. c #CB7C55",
"q. c #C47356",
"w. c #B68D1B",
"e. c #C0900F",
"r. c #C69A1F",
"t. c #97845C",
"y. c #AD9248",
"u. c #BE9F4B",
"i. c #BFA15E",
"p. c #9D9271",
"a. c #CC8269",
"s. c #D78B60",
"d. c #CA8C75",
"f. c #C79C7B",
"g. c #D59679",
"h. c #E5A376",
"j. c #023B86",
"k. c #0F458D",
"l. c #0F4990",
"z. c #174E94",
"x. c #224B83",
"c. c #365A8C",
"v. c #265391",
"b. c #3B659A",
"n. c #2B62A1",
"m. c #316CA6",
"M. c #3A69A4",
"N. c #306EA8",
"B. c #3464A2",
"V. c #495882",
"C. c #51698F",
"Z. c #42699D",
"A. c #63708B",
"S. c #427FB2",
"D. c #4284B6",
"F. c #448EBC",
"G. c #7C89A0",
"H. c #848487",
"J. c #9D998E",
"K. c #8E8D92",
"L. c #9C9C9D",
"P. c #909092",
"I. c #A5959E",
"U. c #A78883",
"Y. c #A5A5A6",
"T. c #A8A7A8",
"R. c #ACABAC",
"E. c #B0AFAF",
"W. c #DAAB9E",
"Q. c #C8ACA1",
"!. c #D9BBA2",
"~. c #ECCBBC",
"^. c #FED8C7",
/* pixels */
"3 3 3 3 3 3 3 3 3 3 3 3 3 3 3 3 3 3 3 + + + + + + + + + + + + + ",
"3 3 3 3 3 3 3 3 3 3 3 3 3 3 3 3 3 Z E I + + + + + + + + + + + + ",
"3 3 3 3 3 3 3 3 3 3 3 3 3 3 3 3 3 U Y v.P 3 3 3 + + + + + + + + ",
"3 3 3 3 3 3 3 3 3 3 3 3 3 3 3 3 U B.B.N.S.P J 3 + + + + + + + + ",
"3 3 3 3 3 3 3 3 3 3 3 3 3 3 3 H N.D.n.D.D.k.T 3 + + + + + + + + ",
"3 3 3 3 3 3 3 3 3 3 3 3 3 3 3 U V.N.z.F.M.S.z.3 + + + + + + + + ",
"3 3 3 3 3 3 3 3 3 3 3 3 3 3 3 C.C.Z.U.m.k.n.j.Z + + + + + + + + ",
"+ + + + 3 3 3 3 3 3 3 3 3 3 3 H 3.Y.W.c.G.x.M.K + + + + + + + + ",
"+ + + + 3 3 3 3 3 3 3 3 3 3 3 3 d.W.~.Q.!.c.x.3 + + + + + + + + ",
"+ + + + 3 3 3 3 3 3 3 3 3 3 3 3 s.^.a.0.R A.3 3 + + + + + + + + ",
"+ + + + 3 3 3 3 3 3 3 3 3 3 3 3 3 8.j g #.& ] 3 + + + + + + + + ",
"+ + + + 3 3 3 3 3 3 3 3 3 3 3 F u.@   d - x % e + + + + + + + + ",
"+ + + + + + + + + + + + + + + w m k * $.N $.& < + + + + + + + + ",
"+ + + + + + + + + + + + + + L u 7 @.g =._ L o , + + + + + + + + ",
"+ + + + + + + + + 0 0 + + + ! & w @.9 ;.` h u | ] + + + + + + + ",
"+ + + + + + + # 2.9.8.A y E , % q @.o *.h.f. .| | S + + + + + + ",
"+ + + + + + + f 5.0.7.3.( # + + X @.% &.b h Q 7 y # + + + + + + ",
"3 3 3 3 + + + L =.0.+.1.] 2 3 3 3 %.$ w.y . w 4 2 2 3 3 3 3 3 3 ",
"3 3 3 3 + + + + j 4.j / # + 3 3 $ y.$ w.i 1 w 3 3 3 3 3 3 3 3 3 ",
"3 3 3 3 + + + + + 4 + + + + 3 2 z ' ~ t.p 7 3 3 3 3 3 3 3 3 3 3 ",
"3 3 3 3 + + + + + + + + + + 3 % %.r D b 1 p 3 1 3 3 3 3 3 3 3 3 ",
"3 3 3 3 + + + + + + + + + @ . %.K.P. .2 r.7 p 1 3 3 3 3 3 3 3 3 ",
"3 3 3 3 + + + + + 3 3 3 6   s p.R.T.( ^ ^ - 7 c t 3 3 3 3 3 3 3 ",
"3 3 3 3 + + + + + 3 3 h . o t.Y.T.( y ) 5 <.= y p 3 3 3 3 3 3 3 ",
"3 3 3 3 + + + + + 3 3 $.= :.J.E.p.& 7 X.G D n = 6 M 3 3 3 3 3 3 ",
"3 3 3 3 + + + + + 3 3 3 z O.Y.E.D % p Q L.e i.- : 6.3 3 3 3 3 3 ",
"3 3 3 3 + + + + + 3 3 3 o.L.L.o.:.M l M K.K e t.C 3 3 3 3 3 3 3 ",
"3 3 3 3 + + + + + 3 3 5 & $ S 3 3 3 3 3 3 ) } F e 3 3 3 3 3 3 3 ",
"3 3 3 3 + + + + + 3 3 3 & $ 3 3 3 3 3 3 3 3 S i 7 3 3 3 3 3 3 3 ",
"3 3 3 3 + + + + + 3 3 3 3 w 3 3 3 3 3 3 3 3 3 * 4 3 3 3 3 3 3 3 ",
"3 3 3 3 + + + + + $ O 2 y F 3 3 3 3 3 3 3 3 3 $ y 1 3 3 3 3 3 3 ",
"3 3 3 3 + + + + + 7 y i c $ 3 3 3 3 3 3 3 3 7 t ! 3 3 3 3 3 3 3 "
};
