/* XPM */
static char *result[] = {
/* columns rows colors chars-per-pixel */
"32 32 229 2 ",
"   c #1A1932",
".  c #0E071B",
"X  c #1A2343",
"o  c #31456C",
"O  c #404650",
"+  c #242F4F",
"@  c #232A48",
"#  c #163160",
"$  c #376DA2",
"%  c #2F66A1",
"&  c #335F96",
"*  c #325C95",
"=  c #1C3663",
"-  c #0F0A1F",
";  c #34507D",
":  c #195094",
">  c #4180B4",
",  c #4283B6",
"<  c #295F9E",
"1  c #4080B4",
"2  c #35669E",
"3  c #26385D",
"4  c #1A1D37",
"5  c #0A428B",
"6  c #306BA6",
"7  c #1D5497",
"8  c #3779AF",
"9  c #767488",
"0  c #3D6AA0",
"q  c #565F7F",
"w  c #435D86",
"e  c #2E3553",
"r  c #37649E",
"t  c #254F87",
"y  c #8990A0",
"u  c #4F6F9B",
"i  c #D89E83",
"p  c #AD989E",
"a  c #8A7371",
"s  c #1E2E54",
"d  c #162043",
"f  c #52688B",
"g  c #797C8A",
"h  c #C68973",
"j  c #D89E89",
"k  c #F0C7B7",
"l  c #D28B68",
"z  c #10091D",
"x  c #4F4F5D",
"c  c #1E1E1B",
"v  c #886910",
"b  c #402A20",
"n  c #723B30",
"m  c #985B4C",
"M  c #292634",
"N  c #1D1C35",
"B  c #1B1528",
"V  c #14141A",
"C  c #6A541F",
"Z  c #4B3D2E",
"A  c #71521C",
"S  c #0F0F10",
"D  c #3C3112",
"F  c #8D7536",
"G  c #33313D",
"H  c #110B1E",
"J  c #1A1424",
"K  c #141314",
"L  c #5D413F",
"P  c #6F524B",
"I  c #A6503B",
"U  c #422624",
"Y  c #83640E",
"T  c #2A2B2F",
"R  c #343337",
"E  c #3E3B47",
"W  c #1C1932",
"Q  c #1B1932",
"!  c #252031",
"~  c #5F5F62",
"^  c #68686A",
"/  c #545059",
"(  c #86695C",
")  c #AB7F68",
"_  c #A24D3A",
"`  c #281D16",
"'  c #2B2935",
"]  c #1B1B1E",
"[  c #32313E",
"{  c #31303C",
"}  c #272634",
"|  c #2B283A",
" . c #72473F",
".. c #784C44",
"X. c #5D3C3F",
"o. c #1D182F",
"O. c #130E1E",
"+. c #313233",
"@. c #2A2A2A",
"#. c #474849",
"$. c #4A3D3B",
"%. c #61403E",
"&. c #AC771A",
"*. c #12151D",
"=. c #07040E",
"-. c #1A1928",
";. c #5A5A5C",
":. c #815351",
">. c #AF6148",
",. c #CA7E57",
"<. c #B75B40",
"1. c #431A23",
"2. c #0F081C",
"3. c #120C1D",
"4. c #1D1C2E",
"5. c #2E2A37",
"6. c #151515",
"7. c #343537",
"8. c #BB8F15",
"9. c #0E0F16",
"0. c #9E8131",
"q. c #161623",
"w. c #1F1E34",
"e. c #3F3E4D",
"r. c #6E4E50",
"t. c #783532",
"y. c #B7684C",
"u. c #8B4237",
"i. c #2E263A",
"p. c #1B1A32",
"a. c #282829",
"s. c #3B3B3C",
"d. c #97855A",
"f. c #494959",
"g. c #69645D",
"h. c #7B5F13",
"j. c #18162A",
"k. c #1D1B34",
"l. c #1E1A32",
"z. c #2E2538",
"x. c #1C1A2D",
"c. c #292837",
"v. c #353535",
"b. c #685625",
"n. c #3C2E2F",
"m. c #4C4B5A",
"M. c #535161",
"N. c #8F7E4F",
"B. c #493A19",
"V. c #141322",
"C. c #2D2A32",
"Z. c #3C3C3D",
"A. c #2E2E2F",
"S. c #32301B",
"D. c #4F4B51",
"F. c #454353",
"G. c #5A5A5B",
"H. c #A6A5A6",
"J. c #AAA9AA",
"K. c #9C8F68",
"L. c #3F2F0D",
"P. c #030307",
"I. c #212036",
"U. c #342821",
"Y. c #323233",
"T. c #40381F",
"R. c #675839",
"E. c #2A283E",
"W. c #5C5D65",
"Q. c #2F2F30",
"!. c #424243",
"~. c #9A9A9A",
"^. c #A9A8A9",
"/. c #968862",
"(. c #45391C",
"). c #181713",
"_. c #645029",
"`. c #8E7449",
"'. c #3B331C",
"]. c #312C1D",
"[. c #B39755",
"{. c #24233A",
"}. c #8C8B91",
"|. c #4C4D4E",
" X c #39393A",
".X c #15181F",
"XX c #434549",
"oX c #B0AFAF",
"OX c #A3A2A2",
"+X c #7E7761",
"@X c #705813",
"#X c #2A252F",
"$X c #584931",
"%X c #7B6C54",
"&X c #39384B",
"*X c #474757",
"=X c #696972",
"-X c #56452A",
";X c #594625",
":X c #5B4826",
">X c #6E5830",
",X c #555461",
"<X c #7D7C82",
"1X c #6E6E6F",
"2X c #565658",
"3X c #1B1A33",
"4X c #26262D",
"5X c #39393C",
"6X c #44434A",
"7X c #26253B",
"8X c #201F37",
"9X c #101010",
"0X c #1E1E1F",
"qX c #1F1E36",
"wX c #232227",
"eX c #161616",
"rX c #32313F",
"tX c #21212F",
"yX c #1A192F",
"uX c #16162A",
"iX c #16152A",
"pX c gray27",
"aX c gray16",
"sX c #24242F",
"dX c #1C1C21",
"fX c #303134",
"gX c #2A2A2B",
"hX c #252527",
"jX c #191830",
/* pixels */
"                                      . . . . . . . . . . . . . ",
"                                      . . . . . . . . . . . . . ",
"                                                . . . . . . . . ",
"                                                . . . . . . . . ",
"                                                . . . . . . . . ",
"                                                . . . . . . . . ",
"                                                . . . . . . . . ",
". . . .                                         . . . . . . . . ",
". . . .                                         . . . . . . . . ",
". . . .                                         . . . . . . . . ",
". . . .                                         . . . . . . . . ",
". . . .                 X o O +                 . . . . . . . . ",
". . . . . . . . . . @ # $ % & * = - . . . . . . . . . . . . . . ",
". . . . . . . . . . ; : > , < 1 2 3 . . . . . . . . . . . . . . ",
". . . . . . . . . 4 5 6 7 8 9 0 q w . . . . . . . . . . . . . . ",
". . . . . . . . . e r t y u i p a s . . . . . . . . . . . . . . ",
". . . . . . . . . . d f g h j k l . . . . . . . . . . . . . . . ",
"        . . . . . z x c v b n m M N                             ",
"        . . . . . B V C Z A S D F G                             ",
"        . . . . H J K L P I U Y T R E       W Q                 ",
"        . . . ! ~ ^ / ( ) _ ` Y ' ] [ { } |  ...X.o.            ",
"        . . . O.+.@.#.$.%.&.*.Y =.    -.;.:.>.,.<.1.            ",
"        . . . 2.3.4.5.6.7.8.9.0.q.    w.e.r.t.y.u.i.            ",
"        . . . . .   p.a.s.d.f.g.h.j.      k.l.z.l.              ",
"        . . . . . x.c.v.b.n.m.M.N.B.V.                          ",
"        . . . . C.Z.A.S.D.F.G.H.J.K.L.P.I.                      ",
"        . . . U.Y.@.T.R.E.W.Q.!.~.^./.(.)._.                    ",
"        . . . `.'.].[.{.}.|. X.XXXoXOX+X@X#X                    ",
"        . . . . $X%X&X*X=X-X;X:X>X,X<X1X2X3X                    ",
"        . . . . 4X5X6X7X            8X9X0XqX                    ",
"        . . . . wXeX3X                rXtXyXuXiX                ",
"        . . . . pXaXsX                dXs.fXgXhXjX              "
};
