/* XPM */
static char *result[] = {
/* columns rows colors chars-per-pixel */
"32 32 73 1 ",
"  c #662C15",
". c #6B2E17",
"X c #6F321B",
"o c #6E3D1D",
"O c #713316",
"+ c #71331B",
"@ c #79381D",
"# c #843E17",
"$ c #833D19",
"% c #8F451F",
"& c #8D481B",
"* c #94461E",
"= c #99471C",
"- c #93481D",
"; c #874626",
": c #8A4625",
"> c #8A4B26",
", c #8D4928",
"< c #914522",
"1 c #994724",
"2 c #954A23",
"3 c #9A4C25",
"4 c #9A4C29",
"5 c #915026",
"6 c #9E5326",
"7 c #9C522C",
"8 c #A04E24",
"9 c #A25222",
"0 c #A95827",
"q c #A3532E",
"w c #A7582F",
"e c #AC5D2C",
"r c #B35F2E",
"t c #A45533",
"y c #A75933",
"u c #AD5C36",
"i c #AD5B38",
"p c #B15D35",
"a c #B15E39",
"s c #AD602D",
"d c #B5632E",
"f c #A56431",
"g c #AE6037",
"h c #AF643A",
"j c #B36235",
"k c #BA6634",
"l c #BD6934",
"z c #B3633A",
"x c #BE6739",
"c c #BE6B3A",
"v c #B77C3F",
"b c #C06733",
"n c #C16C35",
"m c #C36E3A",
"M c #C4703B",
"N c #C8713B",
"B c #B77642",
"V c #B97442",
"C c #BA7F42",
"Z c #BB8346",
"A c #CC8E46",
"S c #C28749",
"D c #C48A4B",
"F c #CD8E4A",
"G c #CB914A",
"H c #CB8E50",
"J c #C79856",
"K c #CD9B56",
"L c #C9975A",
"P c #CC9C58",
"I c #D09B56",
"U c #D19C5A",
"Y c #CDA157",
/* pixels */
"YvSSSSSSSSSSSSSSSSSSSSSDSSSSSSC>",
"J1tapppazjzaazaaaaaaazzaazpaay8@",
"Pi90bknnmmmmNNNmnnbbzbxlnbkkw4e:",
"Pak=rkkkxkkxkmmmmbkppuuypuut3wd>",
"Palu3qjjjjjjjjjgazjzjjgjjjw3rjk:",
"Piljy1ueeeeeeeeejjjgsseeee6qjzk:",
"Pamlgx$OOOOOOOOOOOOOOOOOX>uujjk;",
"PiMlgkO$--<-<<%*:*%%%%%%:ZBukjk;",
"PaVNgkO@dnblljjuuuuuuuuuuDBznzk:",
"PgpmgMO&dnlbbbljuugguuugpFBmnjk:",
"LipmucO$dkdnbnabllnnmlmllFBxMxk:",
"LapNgMO$yuueiipblncMnMbkbFBbmjk:",
"PapmacO$yuiiiiiwguuuuuxmMGBxkpk;",
"PiamgmO$yuiiiiiiuiiyuuyuuDBxzik;",
"PailgkO$ypiitiiiuggjpzpgjDBljuk:",
"PijlgkO$ypiipiiipxlmMMMMmFBjjul:",
"PplkjkO#lNNNNmmbbMMMMnNnnAVkpul,",
"PplnukO$dbnNNNMMMMllkllllGBkjax,",
"PimlgkO#kkklklcgipuuuuuupDBkMzl,",
"PzMmgkO#euupuuiiiiuuiiiyiDBknzx,",
"PaMngkO@yuuugiiyppjiiiuuuDVjMzn>",
"KiMMgkO&mljiiiigmmMljuugpDVknzl,",
"PamNukO@kMccllblbllkkkkkkFBknzk:",
"PaxMelO&zgsjmMMMxjpugugepDvkMzk,",
"PalnjkO&gzzzhhzhhhhzzzzzjSVanxj;",
"Pilnuk&HIUPIIUIIYKUPKUKPUftanjk:",
"Paxly=yhzhhzhzhjzhhgzhhhVi1eljd:",
"Pall=dllmmlknbllblkuiigitiy3ejk:",
"Kud*kkkklMMMMlkMnmmmMMxkkkkk97d:",
"Pi-ygugjiagjgggijgajihiiugggy4e;",
"L<jxllllkllkllxmVMMMMMVMMMMckk6O",
"o.+OXXXXXXOXXX+++++X+++++X+XOO. "
};
